<?xml version="1.0" encoding="UTF-8" standalone="no"?><!DOCTYPE svg PUBLIC "-//W3C//DTD SVG 1.1//EN" "http://www.w3.org/Graphics/SVG/1.1/DTD/svg11.dtd"><svg width="100%" height="100%" viewBox="0 0 246 37" version="1.1" xmlns="http://www.w3.org/2000/svg" xmlns:xlink="http://www.w3.org/1999/xlink" xml:space="preserve" style="fill-rule:evenodd;clip-rule:evenodd;stroke-linecap:round;stroke-linejoin:round;stroke-miterlimit:1.5;"><g id="atv"><g id="wheel"><path id="wheel1" d="M100.669,15.45l0.047,-0.52c0.743,-0.211 1.518,-0.29 2.332,-0.21l0.195,0.518c1.823,0.083 3.538,0.659 4.999,1.607l0.498,-0.416c0.675,0.376 1.279,0.868 1.798,1.5l-0.286,0.631c1.133,1.256 1.958,2.805 2.343,4.535l0.759,0.068c0.211,0.743 0.291,1.519 0.211,2.332l-0.739,0.278c-0.082,1.74 -0.613,3.381 -1.488,4.796l0.517,0.618c-0.376,0.675 -0.868,1.28 -1.5,1.798l-0.728,-0.329c-1.225,1.141 -2.741,1.986 -4.439,2.404l-0.067,0.742c-0.743,0.211 -1.518,0.29 -2.332,0.21l-0.249,-0.662c-1.799,-0.04 -3.5,-0.56 -4.965,-1.447l-0.478,0.4c-0.675,-0.376 -1.279,-0.868 -1.798,-1.5l0.238,-0.525c-1.228,-1.269 -2.129,-2.866 -2.554,-4.665l-0.5,-0.044c-0.211,-0.743 -0.291,-1.519 -0.211,-2.332l0.442,-0.166c0.039,-1.884 0.605,-3.66 1.565,-5.171l-0.297,-0.355c0.376,-0.675 0.868,-1.28 1.5,-1.798l0.424,0.192c1.301,-1.218 2.932,-2.099 4.763,-2.489Z" style="fill:#ff4800;"/><path d="M102.742,23.409c1.08,-0.097 2.036,0.7 2.133,1.78c0.098,1.08 -0.7,2.036 -1.78,2.134c-1.08,0.097 -2.036,-0.7 -2.133,-1.78c-0.098,-1.08 0.7,-2.036 1.78,-2.134Z" style="fill:none;stroke:#fff;stroke-width:1px;"/><path d="M102.398,19.608c3.178,-0.288 5.992,2.06 6.279,5.238c0.287,3.178 -2.06,5.991 -5.238,6.278c-3.178,0.287 -5.992,-2.06 -6.279,-5.238c-0.287,-3.178 2.06,-5.991 5.238,-6.278Z" style="fill:none;stroke:#fff;stroke-width:1px;"/></g><g id="wheel2"><path id="wheel3" d="M149.966,15.419l0.259,-0.453c0.764,0.12 1.501,0.372 2.206,0.785l-0.039,0.553c1.621,0.838 2.937,2.079 3.867,3.552l0.626,-0.17c0.456,0.625 0.799,1.324 1.005,2.115l-0.523,0.453c0.503,1.615 0.604,3.367 0.229,5.1l0.661,0.379c-0.119,0.764 -0.371,1.501 -0.784,2.206l-0.788,-0.056c-0.803,1.546 -1.972,2.813 -3.358,3.733l0.21,0.777c-0.624,0.456 -1.323,0.799 -2.114,1.006l-0.524,-0.605c-1.59,0.525 -3.32,0.657 -5.038,0.325l-0.37,0.646c-0.764,-0.119 -1.501,-0.371 -2.207,-0.784l0.051,-0.706c-1.617,-0.789 -2.944,-1.974 -3.904,-3.392l-0.601,0.163c-0.455,-0.625 -0.798,-1.324 -1.005,-2.115l0.436,-0.377c-0.584,-1.667 -0.734,-3.494 -0.367,-5.306l-0.436,-0.249c0.12,-0.764 0.372,-1.501 0.785,-2.206l0.471,0.033c0.824,-1.694 2.08,-3.07 3.585,-4.04l-0.121,-0.448c0.624,-0.455 1.324,-0.798 2.115,-1.005l0.305,0.352c1.691,-0.561 3.542,-0.679 5.368,-0.266Z" style="fill:#ff4800;"/><path d="M148.516,23.515c1.022,0.363 1.556,1.488 1.193,2.509c-0.364,1.022 -1.488,1.556 -2.51,1.193c-1.021,-0.363 -1.556,-1.488 -1.192,-2.509c0.363,-1.022 1.488,-1.557 2.509,-1.193Z" style="fill:none;stroke:#fff;stroke-width:1px;"/><path d="M149.796,19.919c3.006,1.069 4.579,4.378 3.509,7.385c-1.069,3.006 -4.378,4.579 -7.385,3.509c-3.006,-1.069 -4.579,-4.378 -3.51,-7.385c1.07,-3.006 4.379,-4.579 7.386,-3.509Z" style="fill:none;stroke:#fff;stroke-width:1px;"/></g><path d="M111.517,7.961c0,0 -0.525,0.349 -0.505,0.613c0.03,0.396 0.685,1.765 0.685,1.765c0,0 14.224,3.926 15.274,3.998c0.864,0.06 8.098,-3.947 9.834,-5.007c0.356,-0.218 -0.288,-2.594 -0.288,-2.594l-6.34,1.405l-18.66,-0.18Z" style="fill:#ff4800;"/><path d="M92.098,7.608c-0.412,0.029 -0.25,1.035 0.112,1.234c0.374,0.206 2.133,0 2.133,0l0.481,1.456c5.463,0.34 10.871,0.328 16.247,0.116c0,0 -0.735,-1.526 -0.754,-2.012c-0.014,-0.37 1.012,-0.891 0.642,-0.907c-3.037,-0.132 -15.736,-0.112 -18.861,0.113Z" style="fill:#ff4800;"/><path d="M136.855,6.413l0.268,-0.973l0.813,-0.183l0.972,-3.249l2.354,-1.973c0,0 1.873,-0.106 2.317,0.208c0.581,0.41 1.561,0.423 1.984,1.189c0.422,0.767 1.367,4.164 1.367,4.164c0,0 6.435,0.125 7.881,0.33c0.345,0.049 0.39,0.967 0.046,1.025c-1.207,0.205 -6.099,0.143 -6.099,0.143l-0.206,0.419l6.977,0.656l2.695,6.848c0,0 -13.968,-2.007 -17.635,-1.408c-2.185,0.356 -3.547,1.645 -4.37,5.001c-0.661,2.698 -1.01,10.778 -1.01,10.778l-18.861,-0.225c0,0 -1.385,-10.684 -2.695,-13.135c-0.848,-1.587 -3.369,-1.443 -5.164,-1.572c-3.892,-0.281 -18.187,-0.112 -18.187,-0.112c-0.204,-1.218 -0.107,-2.362 0.561,-3.368l10.665,0.112l11.068,-0.099c0,0 13.251,3.844 14.441,3.729c1.488,-0.144 10.3,-5.336 10.3,-5.336l-0.517,-2.705l-0.037,-0.003l0.021,-0.078l-0.037,-0.192l0.088,0.009Zm-2.33,21.384l-16.826,-0.235l-0.913,-2.325l-0.326,-0.252l0.544,2.567l0.068,0.618l17.408,0.207l0.045,-0.58Z" style="fill:#ff4800;"/><path d="M140.765,2.363c0,0 -1.133,-2.057 -2.155,-2.318c-1.034,-0.265 -4.049,0.732 -4.049,0.732c0,0 -0.53,0.651 -0.48,0.878c0.051,0.228 0.754,0.35 0.754,0.35l2.759,-0.863l1.505,2.198l1.283,0.491l0.383,-1.468" style="fill:#ff4800;"/></g><g id="atv1"><g id="wheel4"><path id="wheel5" d="M187.683,15.45l0.046,-0.52c0.743,-0.211 1.519,-0.29 2.332,-0.21l0.195,0.518c1.824,0.083 3.538,0.659 5,1.607l0.497,-0.416c0.675,0.376 1.28,0.868 1.799,1.5l-0.286,0.631c1.133,1.256 1.958,2.805 2.342,4.535l0.76,0.068c0.211,0.743 0.29,1.519 0.21,2.332l-0.739,0.278c-0.082,1.74 -0.612,3.381 -1.487,4.796l0.517,0.618c-0.376,0.675 -0.868,1.28 -1.5,1.798l-0.728,-0.329c-1.225,1.141 -2.741,1.986 -4.44,2.404l-0.066,0.742c-0.743,0.211 -1.518,0.29 -2.332,0.21l-0.249,-0.662c-1.8,-0.04 -3.501,-0.56 -4.966,-1.447l-0.477,0.4c-0.675,-0.376 -1.279,-0.868 -1.798,-1.5l0.237,-0.525c-1.227,-1.269 -2.129,-2.866 -2.553,-4.665l-0.5,-0.044c-0.212,-0.743 -0.291,-1.519 -0.211,-2.332l0.441,-0.166c0.04,-1.884 0.605,-3.66 1.566,-5.171l-0.298,-0.355c0.377,-0.675 0.869,-1.28 1.5,-1.798l0.425,0.192c1.301,-1.218 2.932,-2.099 4.763,-2.489Z" style="fill:#ff4800;"/><path d="M189.755,23.409c1.08,-0.097 2.036,0.7 2.134,1.78c0.097,1.08 -0.7,2.036 -1.78,2.134c-1.08,0.097 -2.036,-0.7 -2.134,-1.78c-0.097,-1.08 0.7,-2.036 1.78,-2.134Z" style="fill:none;stroke:#fff;stroke-width:1px;"/><path d="M189.412,19.608c3.178,-0.288 5.991,2.06 6.278,5.238c0.288,3.178 -2.059,5.991 -5.238,6.278c-3.178,0.287 -5.991,-2.06 -6.278,-5.238c-0.287,-3.178 2.06,-5.991 5.238,-6.278Z" style="fill:none;stroke:#fff;stroke-width:1px;"/></g><g id="wheel6"><path id="wheel7" d="M236.979,15.419l0.26,-0.453c0.763,0.12 1.5,0.372 2.206,0.785l-0.04,0.553c1.621,0.838 2.937,2.079 3.868,3.552l0.626,-0.17c0.455,0.625 0.798,1.324 1.005,2.115l-0.523,0.453c0.503,1.615 0.604,3.367 0.229,5.1l0.661,0.379c-0.119,0.764 -0.372,1.501 -0.785,2.206l-0.788,-0.056c-0.802,1.546 -1.971,2.813 -3.358,3.733l0.211,0.777c-0.624,0.456 -1.324,0.799 -2.115,1.006l-0.523,-0.605c-1.591,0.525 -3.32,0.657 -5.038,0.325l-0.371,0.646c-0.763,-0.119 -1.501,-0.371 -2.206,-0.784l0.051,-0.706c-1.618,-0.789 -2.945,-1.974 -3.904,-3.392l-0.601,0.163c-0.456,-0.625 -0.798,-1.324 -1.005,-2.115l0.435,-0.377c-0.583,-1.667 -0.734,-3.494 -0.367,-5.306l-0.435,-0.249c0.119,-0.764 0.372,-1.501 0.785,-2.206l0.47,0.033c0.824,-1.694 2.081,-3.07 3.586,-4.04l-0.121,-0.448c0.624,-0.455 1.324,-0.798 2.115,-1.005l0.305,0.352c1.691,-0.561 3.541,-0.679 5.367,-0.266Z" style="fill:#ff4800;"/><path d="M235.53,23.515c1.021,0.363 1.556,1.488 1.192,2.509c-0.363,1.022 -1.487,1.556 -2.509,1.193c-1.022,-0.363 -1.556,-1.488 -1.193,-2.509c0.364,-1.022 1.488,-1.557 2.51,-1.193Z" style="fill:none;stroke:#fff;stroke-width:1px;"/><path d="M236.809,19.919c3.007,1.069 4.579,4.378 3.51,7.385c-1.07,3.006 -4.379,4.579 -7.385,3.509c-3.007,-1.069 -4.579,-4.378 -3.51,-7.385c1.069,-3.006 4.379,-4.579 7.385,-3.509Z" style="fill:none;stroke:#fff;stroke-width:1px;"/></g><path d="M198.53,7.961c0,0 -0.524,0.349 -0.504,0.613c0.03,0.396 0.684,1.765 0.684,1.765c0,0 14.225,3.926 15.274,3.998c0.865,0.06 8.099,-3.947 9.835,-5.007c0.356,-0.218 -0.289,-2.594 -0.289,-2.594l-6.34,1.405l-18.66,-0.18Z" style="fill:#ff4800;"/><path d="M179.111,7.608c-0.412,0.029 -0.25,1.035 0.113,1.234c0.374,0.206 2.133,0 2.133,0l0.481,1.456c5.462,0.34 10.87,0.328 16.247,0.116c0,0 -0.736,-1.526 -0.754,-2.012c-0.015,-0.37 1.011,-0.891 0.641,-0.907c-3.036,-0.132 -15.736,-0.112 -18.861,0.113Z" style="fill:#ff4800;"/><path d="M223.868,6.413l0.269,-0.973l0.812,-0.183l0.973,-3.249l2.353,-1.973c0,0 1.874,-0.106 2.318,0.208c0.581,0.41 1.561,0.423 1.983,1.189c0.423,0.767 1.367,4.164 1.367,4.164c0,0 6.435,0.125 7.882,0.33c0.345,0.049 0.389,0.967 0.046,1.025c-1.208,0.205 -6.1,0.143 -6.1,0.143l-0.205,0.419l6.977,0.656l2.694,6.848c0,0 -13.967,-2.007 -17.635,-1.408c-2.185,0.356 -3.547,1.645 -4.369,5.001c-0.662,2.698 -1.011,10.778 -1.011,10.778l-18.861,-0.225c0,0 -1.384,-10.684 -2.694,-13.135c-0.848,-1.587 -3.37,-1.443 -5.164,-1.572c-3.892,-0.281 -18.188,-0.112 -18.188,-0.112c-0.203,-1.218 -0.107,-2.362 0.561,-3.368l10.666,0.112l11.067,-0.099c0,0 13.252,3.844 14.441,3.729c1.489,-0.144 10.301,-5.336 10.301,-5.336l-0.518,-2.705l-0.037,-0.003l0.022,-0.078l-0.037,-0.192l0.087,0.009Zm-2.329,21.384l-16.826,-0.235l-0.914,-2.325l-0.325,-0.252l0.543,2.567l0.069,0.618l17.407,0.207l0.046,-0.58Z" style="fill:#ff4800;"/><path d="M227.779,2.363c0,0 -1.133,-2.057 -2.156,-2.318c-1.034,-0.265 -4.048,0.732 -4.048,0.732c0,0 -0.531,0.651 -0.48,0.878c0.05,0.228 0.754,0.35 0.754,0.35l2.759,-0.863l1.505,2.198l1.283,0.491l0.383,-1.468" style="fill:#ff4800;"/></g><g id="atv2"><g id="wheel8"><path id="wheel9" d="M10.463,15.45l0.046,-0.52c0.743,-0.211 1.518,-0.29 2.332,-0.21l0.195,0.518c1.823,0.083 3.538,0.659 5,1.607l0.497,-0.416c0.675,0.376 1.279,0.868 1.798,1.5l-0.285,0.631c1.132,1.256 1.957,2.805 2.342,4.535l0.759,0.068c0.212,0.743 0.291,1.519 0.211,2.332l-0.739,0.278c-0.082,1.74 -0.613,3.381 -1.487,4.796l0.516,0.618c-0.376,0.675 -0.868,1.28 -1.5,1.798l-0.727,-0.329c-1.226,1.141 -2.741,1.986 -4.44,2.404l-0.066,0.742c-0.744,0.211 -1.519,0.29 -2.332,0.21l-0.25,-0.662c-1.799,-0.04 -3.5,-0.56 -4.965,-1.447l-0.478,0.4c-0.675,-0.376 -1.279,-0.868 -1.798,-1.5l0.238,-0.525c-1.227,-1.269 -2.129,-2.866 -2.554,-4.665l-0.5,-0.044c-0.211,-0.743 -0.29,-1.519 -0.211,-2.332l0.442,-0.166c0.039,-1.884 0.605,-3.66 1.565,-5.171l-0.297,-0.355c0.376,-0.675 0.868,-1.28 1.5,-1.798l0.424,0.192c1.301,-1.218 2.932,-2.099 4.764,-2.489Z" style="fill:#ff4800;"/><path d="M12.535,23.409c1.08,-0.097 2.036,0.7 2.133,1.78c0.098,1.08 -0.7,2.036 -1.779,2.134c-1.08,0.097 -2.036,-0.7 -2.134,-1.78c-0.098,-1.08 0.7,-2.036 1.78,-2.134Z" style="fill:none;stroke:#fff;stroke-width:1px;"/><path d="M12.191,19.608c3.179,-0.288 5.992,2.06 6.279,5.238c0.287,3.178 -2.06,5.991 -5.238,6.278c-3.178,0.287 -5.991,-2.06 -6.279,-5.238c-0.287,-3.178 2.06,-5.991 5.238,-6.278Z" style="fill:none;stroke:#fff;stroke-width:1px;"/></g><g id="wheel10"><path id="wheel11" d="M59.759,15.419l0.259,-0.453c0.764,0.12 1.501,0.372 2.207,0.785l-0.04,0.553c1.621,0.838 2.937,2.079 3.868,3.552l0.626,-0.17c0.455,0.625 0.798,1.324 1.005,2.115l-0.524,0.453c0.503,1.615 0.604,3.367 0.229,5.1l0.662,0.379c-0.12,0.764 -0.372,1.501 -0.785,2.206l-0.788,-0.056c-0.803,1.546 -1.971,2.813 -3.358,3.733l0.211,0.777c-0.624,0.456 -1.324,0.799 -2.115,1.006l-0.523,-0.605c-1.591,0.525 -3.321,0.657 -5.039,0.325l-0.37,0.646c-0.764,-0.119 -1.501,-0.371 -2.206,-0.784l0.05,-0.706c-1.617,-0.789 -2.944,-1.974 -3.903,-3.392l-0.601,0.163c-0.456,-0.625 -0.799,-1.324 -1.005,-2.115l0.435,-0.377c-0.584,-1.667 -0.734,-3.494 -0.367,-5.306l-0.435,-0.249c0.119,-0.764 0.371,-1.501 0.784,-2.206l0.471,0.033c0.824,-1.694 2.081,-3.07 3.586,-4.04l-0.122,-0.448c0.625,-0.455 1.324,-0.798 2.115,-1.005l0.305,0.352c1.692,-0.561 3.542,-0.679 5.368,-0.266Z" style="fill:#ff4800;"/><path d="M58.31,23.515c1.021,0.363 1.556,1.488 1.192,2.509c-0.363,1.022 -1.488,1.556 -2.509,1.193c-1.022,-0.363 -1.556,-1.488 -1.193,-2.509c0.363,-1.022 1.488,-1.557 2.51,-1.193Z" style="fill:none;stroke:#fff;stroke-width:1px;"/><path d="M59.589,19.919c3.006,1.069 4.579,4.378 3.51,7.385c-1.07,3.006 -4.379,4.579 -7.386,3.509c-3.006,-1.069 -4.579,-4.378 -3.509,-7.385c1.069,-3.006 4.378,-4.579 7.385,-3.509Z" style="fill:none;stroke:#fff;stroke-width:1px;"/></g><path d="M21.31,7.961c0,0 -0.524,0.349 -0.505,0.613c0.03,0.396 0.685,1.765 0.685,1.765c0,0 14.225,3.926 15.274,3.998c0.865,0.06 8.099,-3.947 9.834,-5.007c0.356,-0.218 -0.288,-2.594 -0.288,-2.594l-6.34,1.405l-18.66,-0.18Z" style="fill:#ff4800;"/><path d="M1.891,7.608c-0.412,0.029 -0.25,1.035 0.112,1.234c0.375,0.206 2.133,0 2.133,0l0.481,1.456c5.463,0.34 10.871,0.328 16.247,0.116c0,0 -0.735,-1.526 -0.754,-2.012c-0.014,-0.37 1.012,-0.891 0.642,-0.907c-3.036,-0.132 -15.736,-0.112 -18.861,0.113Z" style="fill:#ff4800;"/><path d="M46.648,6.413l0.269,-0.973l0.812,-0.183l0.972,-3.249l2.354,-1.973c0,0 1.873,-0.106 2.317,0.208c0.582,0.41 1.561,0.423 1.984,1.189c0.423,0.767 1.367,4.164 1.367,4.164c0,0 6.435,0.125 7.882,0.33c0.345,0.049 0.389,0.967 0.045,1.025c-1.207,0.205 -6.099,0.143 -6.099,0.143l-0.206,0.419l6.978,0.656l2.694,6.848c0,0 -13.968,-2.007 -17.635,-1.408c-2.185,0.356 -3.547,1.645 -4.37,5.001c-0.661,2.698 -1.01,10.778 -1.01,10.778l-18.861,-0.225c0,0 -1.385,-10.684 -2.694,-13.135c-0.848,-1.587 -3.37,-1.443 -5.165,-1.572c-3.892,-0.281 -18.187,-0.112 -18.187,-0.112c-0.204,-1.218 -0.107,-2.362 0.561,-3.368l10.666,0.112l11.067,-0.099c0,0 13.252,3.844 14.441,3.729c1.488,-0.144 10.301,-5.336 10.301,-5.336l-0.518,-2.705l-0.037,-0.003l0.021,-0.078l-0.036,-0.192l0.087,0.009Zm-2.33,21.384l-16.825,-0.235l-0.914,-2.325l-0.326,-0.252l0.544,2.567l0.068,0.618l17.408,0.207l0.045,-0.58Z" style="fill:#ff4800;"/><path d="M50.559,2.363c0,0 -1.134,-2.057 -2.156,-2.318c-1.034,-0.265 -4.049,0.732 -4.049,0.732c0,0 -0.53,0.651 -0.479,0.878c0.05,0.228 0.753,0.35 0.753,0.35l2.76,-0.863l1.504,2.198l1.284,0.491l0.383,-1.468" style="fill:#ff4800;"/></g></svg>