<?xml version="1.0" encoding="UTF-8" standalone="no"?><!DOCTYPE svg PUBLIC "-//W3C//DTD SVG 1.1//EN" "http://www.w3.org/Graphics/SVG/1.1/DTD/svg11.dtd"><svg width="100%" height="100%" viewBox="0 0 146 84" version="1.1" xmlns="http://www.w3.org/2000/svg" xmlns:xlink="http://www.w3.org/1999/xlink" xml:space="preserve" style="fill-rule:evenodd;clip-rule:evenodd;stroke-linecap:round;stroke-linejoin:round;stroke-miterlimit:1.5;"><g><g><path d="M91.14,2l0,80" style="fill:none;stroke:#ff4800;stroke-width:4px;"/><g><path d="M91.006,2.101c0,0 0.239,10.745 -15.312,16.923" style="fill:none;stroke:#ff4800;stroke-width:4px;"/><path d="M91.275,2.101c0,0 -0.239,10.745 15.311,16.923" style="fill:none;stroke:#ff4800;stroke-width:4px;"/></g><g><path d="M91.006,17.331c0,0 0.239,10.745 -15.312,16.923" style="fill:none;stroke:#ff4800;stroke-width:4px;"/><path d="M91.275,17.331c0,0 -0.239,10.745 15.311,16.923" style="fill:none;stroke:#ff4800;stroke-width:4px;"/></g><g><path d="M91.006,33.703c0,0 0.239,10.745 -15.312,16.924" style="fill:none;stroke:#ff4800;stroke-width:4px;"/><path d="M91.275,33.703c0,0 -0.239,10.745 15.311,16.924" style="fill:none;stroke:#ff4800;stroke-width:4px;"/></g><g><path d="M91.006,50.837c0,0 0.239,10.745 -15.312,16.923" style="fill:none;stroke:#ff4800;stroke-width:4px;"/><path d="M91.275,50.837c0,0 -0.239,10.745 15.311,16.923" style="fill:none;stroke:#ff4800;stroke-width:4px;"/></g></g><g><path d="M54.293,19.205l0,62.795" style="fill:none;stroke:#ff4800;stroke-width:4px;"/><g><path d="M54.159,19.306c0,0 0.239,10.745 -15.312,16.923" style="fill:none;stroke:#ff4800;stroke-width:4px;"/><path d="M54.428,19.306c0,0 -0.24,10.745 15.311,16.923" style="fill:none;stroke:#ff4800;stroke-width:4px;"/></g><g><path d="M54.159,34.536c0,0 0.239,10.745 -15.312,16.923" style="fill:none;stroke:#ff4800;stroke-width:4px;"/><path d="M54.428,34.536c0,0 -0.24,10.745 15.311,16.923" style="fill:none;stroke:#ff4800;stroke-width:4px;"/></g><g><path d="M54.159,50.908c0,0 0.239,10.745 -15.312,16.923" style="fill:none;stroke:#ff4800;stroke-width:4px;"/><path d="M54.428,50.908c0,0 -0.24,10.745 15.311,16.923" style="fill:none;stroke:#ff4800;stroke-width:4px;"/></g></g><g><path d="M127.988,34.9l0,47.1" style="fill:none;stroke:#ff4800;stroke-width:4px;"/><g><path d="M127.853,35.001c0,0 0.239,10.745 -15.311,16.924" style="fill:none;stroke:#ff4800;stroke-width:4px;"/><path d="M128.122,35.001c0,0 -0.239,10.745 15.312,16.924" style="fill:none;stroke:#ff4800;stroke-width:4px;"/></g><g><path d="M127.853,50.231c0,0 0.239,10.745 -15.311,16.924" style="fill:none;stroke:#ff4800;stroke-width:4px;"/><path d="M128.122,50.231c0,0 -0.239,10.745 15.312,16.924" style="fill:none;stroke:#ff4800;stroke-width:4px;"/></g></g><g><path d="M17.446,34.9l0,47.1" style="fill:none;stroke:#ff4800;stroke-width:4px;"/><g><path d="M17.312,35.001c0,0 0.239,10.745 -15.312,16.924" style="fill:none;stroke:#ff4800;stroke-width:4px;"/><path d="M17.58,35.001c0,0 -0.239,10.745 15.312,16.924" style="fill:none;stroke:#ff4800;stroke-width:4px;"/></g><g><path d="M17.312,50.231c0,0 0.239,10.745 -15.312,16.924" style="fill:none;stroke:#ff4800;stroke-width:4px;"/><path d="M17.58,50.231c0,0 -0.239,10.745 15.312,16.924" style="fill:none;stroke:#ff4800;stroke-width:4px;"/></g></g></g></svg>